<svg xmlns="http://www.w3.org/2000/svg" viewBox="0 0 512 512" width="512" height="512">
  <rect width="512" height="512" rx="100" fill="#6C3FE0"/>
  <g transform="translate(40, 120)">
    <!-- Cuerpo sedan Fiat Cronos -->
    <path d="M60 185 L90 120 L140 80 L195 65 L290 65 L355 80 L380 120 L400 160 L410 185 L410 215 L390 225 L30 225 L10 215 L10 185 Z" fill="#C0C0C0"/>
    <!-- Techo -->
    <path d="M140 80 L155 38 L275 38 L300 65 L355 80" fill="#A8A8A8" stroke="#999" stroke-width="1"/>
    <!-- Ventanas -->
    <path d="M160 45 L215 45 L215 100 L148 92 Z" fill="#4A90D9" opacity="0.8"/>
    <path d="M225 45 L285 45 L308 75 L308 100 L225 100 Z" fill="#4A90D9" opacity="0.8"/>
    <!-- Linea de cintura -->
    <path d="M60 130 L410 130" stroke="#999" stroke-width="2" fill="none"/>
    <!-- Faros delanteros -->
    <path d="M15 162 L60 152 L60 190 L15 190 Z" fill="#FFE066" opacity="0.9"/>
    <!-- Faros traseros -->
    <path d="M395 155 L410 155 L410 195 L390 195 Z" fill="#EF4444" opacity="0.9"/>
    <!-- Parrilla FIAT -->
    <rect x="15" y="190" width="55" height="22" rx="5" fill="#333"/>
    <text x="25" y="206" font-size="14" fill="white" font-family="Arial" font-weight="bold">FIAT</text>
    <!-- Rueda delantera -->
    <circle cx="115" cy="225" r="42" fill="#222"/>
    <circle cx="115" cy="225" r="26" fill="#444"/>
    <circle cx="115" cy="225" r="10" fill="#666"/>
    <!-- Rueda trasera -->
    <circle cx="315" cy="225" r="42" fill="#222"/>
    <circle cx="315" cy="225" r="26" fill="#444"/>
    <circle cx="315" cy="225" r="10" fill="#666"/>
    <!-- Manijas -->
    <rect x="180" y="125" width="28" height="7" rx="3.5" fill="#888"/>
    <rect x="260" y="125" width="28" height="7" rx="3.5" fill="#888"/>
  </g>
</svg>
