<svg xmlns="http://www.w3.org/2000/svg" viewBox="0 0 192 192" width="192" height="192">
  <defs>
    <linearGradient id="bg2" x1="0%" y1="0%" x2="0%" y2="100%">
      <stop offset="0%" style="stop-color:#7C4FEE"/>
      <stop offset="100%" style="stop-color:#5530B0"/>
    </linearGradient>
    <linearGradient id="body2" x1="0%" y1="0%" x2="0%" y2="100%">
      <stop offset="0%" style="stop-color:#E0E0E0"/>
      <stop offset="50%" style="stop-color:#C0C0C0"/>
      <stop offset="100%" style="stop-color:#999"/>
    </linearGradient>
    <linearGradient id="glass2" x1="0%" y1="0%" x2="0%" y2="100%">
      <stop offset="0%" style="stop-color:#87CEEB"/>
      <stop offset="100%" style="stop-color:#2C5F8A"/>
    </linearGradient>
  </defs>
  <rect width="192" height="192" rx="40" fill="url(#bg2)"/>
  
  <ellipse cx="96" cy="133" rx="64" ry="7" fill="rgba(0,0,0,0.25)"/>
  
  <g transform="translate(17, 52)">
    <!-- Cuerpo -->
    <path d="M15 55 L12 50 L10 42 L148 42 L146 50 L143 55 Z" fill="#777"/>
    <path d="M10 42 L18 30 L25 25 L133 25 L140 30 L148 42 Z" fill="url(#body2)"/>
    
    <!-- Techo -->
    <path d="M45 25 L52 10 L108 10 L120 20 L133 25 Z" fill="#CCC" stroke="#AAA" stroke-width="0.5"/>
    
    <!-- Ventanas -->
    <path d="M48 23 L54 12 L80 12 L80 23 Z" fill="url(#glass2)" opacity="0.85"/>
    <path d="M84 12 L106 12 L116 20 L125 23 L84 23 Z" fill="url(#glass2)" opacity="0.85"/>
    <rect x="80" y="12" width="4" height="11" fill="#999"/>
    
    <!-- Linea -->
    <path d="M8 35 L150 34" stroke="#AAA" stroke-width="1"/>
    
    <!-- Faros -->
    <rect x="8" y="32" width="12" height="9" rx="2" fill="#FFFACD" opacity="0.8"/>
    <rect x="138" y="32" width="12" height="9" rx="2" fill="#DC2626" opacity="0.8"/>
    
    <!-- Parrilla -->
    <rect x="8" y="41" width="14" height="6" rx="1" fill="#222"/>
    
    <!-- Ruedas -->
    <circle cx="40" cy="55" r="14" fill="#222"/>
    <circle cx="40" cy="55" r="10" fill="#333"/>
    <circle cx="40" cy="55" r="3" fill="#777"/>
    
    <circle cx="118" cy="55" r="14" fill="#222"/>
    <circle cx="118" cy="55" r="10" fill="#333"/>
    <circle cx="118" cy="55" r="3" fill="#777"/>
  </g>
  
  <text x="96" y="160" text-anchor="middle" font-size="13" fill="white" font-family="Arial" font-weight="bold" opacity="0.9">CRONOS</text>
</svg>
