<svg xmlns="http://www.w3.org/2000/svg" viewBox="0 0 192 192" width="192" height="192">
  <rect width="192" height="192" rx="40" fill="#6C3FE0"/>
  <g transform="translate(16, 45)">
    <!-- Cuerpo sedan Fiat Cronos -->
    <path d="M25 70 L35 45 L55 30 L75 25 L110 25 L135 30 L145 45 L150 60 L155 70 L155 82 L148 85 L12 85 L5 82 L5 70 Z" fill="#C0C0C0"/>
    <!-- Techo -->
    <path d="M55 30 L60 15 L105 15 L115 25 L135 30" fill="#A8A8A8" stroke="#999" stroke-width="0.5"/>
    <!-- Ventanas -->
    <path d="M62 18 L82 18 L82 38 L58 35 Z" fill="#4A90D9" opacity="0.8"/>
    <path d="M86 18 L108 18 L118 30 L118 38 L86 38 Z" fill="#4A90D9" opacity="0.8"/>
    <!-- Linea de cintura -->
    <path d="M25 50 L155 50" stroke="#999" stroke-width="1" fill="none"/>
    <!-- Faros delanteros -->
    <path d="M8 62 L25 58 L25 72 L8 72 Z" fill="#FFE066" opacity="0.9"/>
    <!-- Faros traseros -->
    <path d="M150 60 L155 60 L155 75 L148 75 Z" fill="#EF4444" opacity="0.9"/>
    <!-- Parrilla FIAT -->
    <rect x="8" y="72" width="20" height="8" rx="2" fill="#333"/>
    <text x="13" y="79" font-size="5" fill="white" font-family="Arial" font-weight="bold">FIAT</text>
    <!-- Rueda delantera -->
    <circle cx="45" cy="85" r="16" fill="#222"/>
    <circle cx="45" cy="85" r="10" fill="#444"/>
    <circle cx="45" cy="85" r="4" fill="#666"/>
    <!-- Rueda trasera -->
    <circle cx="120" cy="85" r="16" fill="#222"/>
    <circle cx="120" cy="85" r="10" fill="#444"/>
    <circle cx="120" cy="85" r="4" fill="#666"/>
    <!-- Manija puerta -->
    <rect x="70" y="48" width="10" height="3" rx="1.5" fill="#888"/>
  </g>
</svg>
